<?xml version="1.0" encoding="utf-8"?>
<!-- Generator: Adobe Illustrator 23.0.6, SVG Export Plug-In . SVG Version: 6.00 Build 0)  -->
<svg version="1.1" id="Layer_1" xmlns="http://www.w3.org/2000/svg" xmlns:xlink="http://www.w3.org/1999/xlink" x="0px" y="0px"
	 viewBox="0 0 73 74" style="enable-background:new 0 0 73 74;" xml:space="preserve">
<style type="text/css">
	.st0{fill:#FFFFFF;}
</style>
<g>
	<rect x="58" y="-213" width="74" height="5"/>
</g>
<g>
	<path d="M57,34.54H45.63V17.45v-0.14v-1.26H22.42v1.26v0.14v17.09H11.05v1.4h11.37V65.5h1.57V35.94h20.07V65.5h1.57V35.94H57V34.54
		z M23.99,34.54V17.45h20.07v17.09H23.99z"/>
</g>
<polygon class="st0" points="29.63,21.32 28.47,22.36 19.15,14.04 20.31,13 "/>
<polygon class="st0" points="39.53,22.36 38.37,21.32 47.68,13 48.85,14.04 "/>
<g>
	<polygon points="43.61,62.04 24.39,36 24.39,38.82 43.46,64.67 43.61,64.55 	"/>
</g>
<rect x="10" y="32" transform="matrix(0.7071 -0.7071 0.7071 0.7071 -22.234 18.3223)" class="st0" width="2" height="8"/>
<rect x="22" y="61" transform="matrix(0.7071 -0.7071 0.7071 0.7071 -39.2254 35.3015)" class="st0" width="2" height="8"/>
<rect x="45" y="61" transform="matrix(0.7071 0.7071 -0.7071 0.7071 59.435 -13.4889)" class="st0" width="2" height="8"/>
</svg>
