<?xml version="1.0" encoding="utf-8"?>
<!-- Generator: Adobe Illustrator 22.1.0, SVG Export Plug-In . SVG Version: 6.00 Build 0)  -->
<svg version="1.1" id="Layer_1" xmlns="http://www.w3.org/2000/svg" xmlns:xlink="http://www.w3.org/1999/xlink" x="0px" y="0px"
	 viewBox="0 0 80 80" style="enable-background:new 0 0 80 80;" xml:space="preserve">
<style type="text/css">
	.st0{stroke:#000000;stroke-miterlimit:10;}
</style>
<g>
	<path class="st0" d="M41.9,55.7c0.6,1.2,0.7-1.5,0.7-1.5s-0.8-1.5-2.3-3.9c3.1-5.4,6.3-10.1,9.5-14.9c4.5-6.5,8.2-10.8,10-10.4
		c1,0.2,3.2-2,4.8-4.5c1.5-2.5,1.8-4.1,1.5-5.7c-0.2-1.3-1.2-0.4-2,0.3c-3.7,3.7-9.3,10.8-15,18.9c-3.7,5.2-6.8,9.8-9.8,14.7
		c-2.1-3.2-7.7-9.2-11.4-13.1c1-1.6,2-3.1,3-4.6c5.7-7.9,10.9-13.9,13.8-13.9c1.1,0,3.2-1.6,4.5-3.4c0.7-1,0.9-1.8,0.9-2.5
		c8.6-3.2,19.3-2.4,18.3,2.9c-0.1,0.6,0.4,0.8,0.9,0.2c0.4-0.6,2.7-6.2-2.2-7.1c-3.7-0.7-10.7,1.1-17.3,2.9
		c-0.6-1.4-2.3,0.2-2.9,0.7c-12,3.5-16.3,5.7-23.9,4.1c-2.7-0.6-2.2-1.9-6.2-1.5c-0.5,0-1,0.1-1.4,0.1c4-3.9,8.9-6.8,14.3-8.4
		C38,2.9,46.9,3.8,54.6,7.6c0,0,0.5-1.8,0-2.1c-14.1-6.8-31.4-3.4-41.5,8.6c-0.4,0.1-0.6,0.4-0.6,0.7c-0.1,0.1-0.2,0.3-0.3,0.4
		c-7.6,9.8-9.4,23.6-5,35.2c3,7.8,8.7,14.1,16,18.1c0,0,0.5-1.8,0-2.1C11,59.8,3.4,45.9,5.7,32.1c1-6,3.7-11.5,7.6-16
		c0.2,0.2,0.3,0.4,0.5,0.6c0.9,0.9,1.9,1.1,3.1,1.1c14.3,0.4,19.9-2.9,28.4-5.2c-4.5,4.2-10.5,11-15.8,18.1c-1,1.3-1.9,2.6-2.9,3.9
		c-0.6-0.6-0.9-1-0.9-1c-2.6-2.5-1.5-1.5,0.9,1c-4.6,6.5-8.3,12.8-10.2,17.3c-0.9,2.1,1.6,4.5,2.2,2.8c1.8-4.8,5.1-12.2,9.1-18.8
		c3,3.5,8.4,9.9,10.8,14.1c-5.5,8.8-10.2,17.5-13,23.8c-1.3,3,0.1,7.2,1.1,4.7c2.8-6.9,7.6-17.3,12.9-26.7
		C41,53.7,41.7,55.1,41.9,55.7z"/>
	<path class="st0" d="M32.3,69.7c-0.5-0.1-0.7,1.9,0,2.1c11.8,2.4,24.2-1.5,32.4-10.4c6.6-7.1,9.9-17,9.3-26.7
		c-0.4-5.9-2.3-11.5-5.3-16.6c-0.4-0.7-0.8,1.3-0.5,1.8c6.6,10.9,6.5,24.7-0.6,35.4C59.9,66.8,45.8,72.4,32.3,69.7z"/>
</g>
</svg>
